<svg viewBox="0 0 1412 736" xmlns="http://www.w3.org/2000/svg">
<g fill="#F6B33C">
  <path d="M 264.0,645.0 C 263.0,643.7 256.0,647.3 251.0,651.0 C 246.0,654.7 243.8,656.8 234.0,667.0 C 224.2,677.2 199.8,703.0 192.0,712.0 C 184.2,721.0 187.5,719.0 187.0,721.0 C 186.5,723.0 188.2,723.5 189.0,724.0 C 189.8,724.5 190.5,724.5 192.0,724.0 C 193.5,723.5 193.5,724.8 198.0,721.0 C 202.5,717.2 209.2,711.3 219.0,701.0 C 228.8,690.7 249.5,668.3 257.0,659.0 C 264.5,649.7 265.0,646.3 264.0,645.0 Z"/>
  <path d="M 242.0,602.0 C 242.0,600.7 244.5,598.0 240.0,597.0 C 235.5,596.0 230.5,595.3 215.0,596.0 C 199.5,596.7 161.7,600.2 147.0,601.0 C 132.3,601.8 130.5,600.0 127.0,601.0 C 123.5,602.0 124.8,605.2 126.0,607.0 C 127.2,608.8 129.3,611.2 134.0,612.0 C 138.7,612.8 145.7,612.5 154.0,612.0 C 162.3,611.5 170.8,609.8 184.0,609.0 C 197.2,608.2 223.7,607.7 233.0,607.0 C 242.3,606.3 238.5,605.8 240.0,605.0 C 241.5,604.2 242.0,603.3 242.0,602.0 Z"/>
  <path d="M 1118.0,581.0 C 1116.7,582.2 1117.7,587.5 1118.0,590.0 C 1118.3,592.5 1110.0,582.5 1120.0,596.0 C 1130.0,609.5 1166.2,656.3 1178.0,671.0 C 1189.8,685.7 1188.5,681.8 1191.0,684.0 C 1193.5,686.2 1192.0,684.7 1193.0,684.0 C 1194.0,683.3 1196.7,681.8 1197.0,680.0 C 1197.3,678.2 1197.7,677.7 1195.0,673.0 C 1192.3,668.3 1191.7,666.3 1181.0,652.0 C 1170.3,637.7 1140.2,598.5 1131.0,587.0 C 1121.8,575.5 1128.2,584.0 1126.0,583.0 C 1123.8,582.0 1119.3,579.8 1118.0,581.0 Z"/>
  <path d="M 1275.0,519.0 C 1289.3,517.5 1270.8,515.5 1267.0,514.0 C 1263.2,512.5 1261.5,511.2 1252.0,510.0 C 1242.5,508.8 1224.2,506.8 1210.0,507.0 C 1195.8,507.2 1177.0,509.7 1167.0,511.0 C 1157.0,512.3 1154.0,513.5 1150.0,515.0 C 1146.0,516.5 1142.5,518.8 1143.0,520.0 C 1143.5,521.2 1146.7,521.5 1153.0,522.0 C 1159.3,522.5 1160.7,523.5 1181.0,523.0 C 1201.3,522.5 1260.7,520.5 1275.0,519.0 Z"/>
  <path d="M 218.0,471.0 C 217.5,472.5 218.2,478.8 221.0,486.0 C 223.8,493.2 229.5,505.0 235.0,514.0 C 240.5,523.0 248.7,533.7 254.0,540.0 C 259.3,546.3 264.0,549.7 267.0,552.0 C 270.0,554.3 273.3,557.7 272.0,554.0 C 270.7,550.3 264.0,538.0 259.0,530.0 C 254.0,522.0 247.8,514.8 242.0,506.0 C 236.2,497.2 228.0,482.8 224.0,477.0 C 220.0,471.2 218.5,469.5 218.0,471.0 Z"/>
  <path d="M 353.0,455.0 C 352.3,454.7 352.5,453.5 351.0,455.0 C 349.5,456.5 345.5,461.2 344.0,464.0 C 342.5,466.8 344.7,464.8 342.0,472.0 C 339.3,479.2 331.5,497.3 328.0,507.0 C 324.5,516.7 322.5,525.7 321.0,530.0 C 319.5,534.3 319.2,530.5 319.0,533.0 C 318.8,535.5 319.5,543.0 320.0,545.0 C 320.5,547.0 320.8,545.8 322.0,545.0 C 323.2,544.2 325.3,542.7 327.0,540.0 C 328.7,537.3 330.0,534.7 332.0,529.0 C 334.0,523.3 335.7,515.5 339.0,506.0 C 342.3,496.5 349.3,480.2 352.0,472.0 C 354.7,463.8 354.8,459.8 355.0,457.0 C 355.2,454.2 353.7,455.3 353.0,455.0 Z"/>
  <path d="M 1185.0,317.0 C 1181.5,318.0 1185.5,306.3 1173.0,327.0 C 1160.5,347.7 1120.7,421.2 1110.0,441.0 C 1099.3,460.8 1108.7,444.0 1109.0,446.0 C 1109.3,448.0 1110.3,452.0 1112.0,453.0 C 1113.7,454.0 1115.8,455.0 1119.0,452.0 C 1122.2,449.0 1118.5,456.3 1131.0,435.0 C 1143.5,413.7 1183.5,343.0 1194.0,324.0 C 1204.5,305.0 1195.5,322.2 1194.0,321.0 C 1192.5,319.8 1188.5,316.0 1185.0,317.0 Z"/>
  <path d="M 1016.0,303.0 C 1013.8,301.5 1011.0,301.7 1010.0,305.0 C 1009.0,308.3 1009.3,316.3 1010.0,323.0 C 1010.7,329.7 1009.8,328.0 1014.0,345.0 C 1018.2,362.0 1030.7,409.7 1035.0,425.0 C 1039.3,440.3 1038.0,433.3 1040.0,437.0 C 1042.0,440.7 1045.5,449.5 1047.0,447.0 C 1048.5,444.5 1053.0,444.2 1049.0,422.0 C 1045.0,399.8 1028.5,333.8 1023.0,314.0 C 1017.5,294.2 1018.2,304.5 1016.0,303.0 Z"/>
  <path d="M 764.0,295.0 C 740.8,305.3 640.3,356.0 619.0,368.0 C 597.7,380.0 629.5,368.0 636.0,367.0 C 642.5,366.0 646.0,366.3 658.0,362.0 C 670.0,357.7 692.8,348.8 708.0,341.0 C 723.2,333.2 740.7,320.8 749.0,315.0 C 757.3,309.2 755.5,309.3 758.0,306.0 C 760.5,302.7 787.2,284.7 764.0,295.0 Z"/>
  <path d="M 227.0,286.0 C 202.7,275.0 229.5,293.5 232.0,297.0 C 234.5,300.5 232.3,300.0 242.0,307.0 C 251.7,314.0 273.5,329.7 290.0,339.0 C 306.5,348.3 329.8,358.2 341.0,363.0 C 352.2,367.8 351.3,366.8 357.0,368.0 C 362.7,369.2 371.5,370.8 375.0,370.0 C 378.5,369.2 402.7,377.0 378.0,363.0 C 353.3,349.0 251.3,297.0 227.0,286.0 Z"/>
  <path d="M 793.0,274.0 C 792.8,274.5 793.2,275.5 793.0,276.0 C 792.8,276.5 792.2,276.0 792.0,277.0 C 791.8,278.0 791.8,281.0 792.0,282.0 C 792.2,283.0 792.8,282.7 793.0,283.0 C 793.2,283.3 792.5,283.3 793.0,284.0 C 793.5,284.7 795.5,286.3 796.0,287.0 C 796.5,287.7 795.2,287.3 796.0,288.0 C 796.8,288.7 799.8,290.5 801.0,291.0 C 802.2,291.5 802.5,290.8 803.0,291.0 C 803.5,291.2 803.0,291.8 804.0,292.0 C 805.0,292.2 808.0,292.2 809.0,292.0 C 810.0,291.8 809.3,291.2 810.0,291.0 C 810.7,290.8 811.3,291.7 813.0,291.0 C 814.7,290.3 818.0,287.7 820.0,287.0 C 822.0,286.3 824.2,287.2 825.0,287.0 C 825.8,286.8 825.3,286.5 825.0,286.0 C 824.7,285.5 823.5,284.8 823.0,284.0 C 822.5,283.2 822.5,281.8 822.0,281.0 C 821.5,280.2 820.5,279.8 820.0,279.0 C 819.5,278.2 819.8,277.2 819.0,276.0 C 818.2,274.8 815.8,272.7 815.0,272.0 C 814.2,271.3 815.2,273.0 814.0,272.0 C 812.8,271.0 809.2,267.0 808.0,266.0 C 806.8,265.0 807.3,266.2 807.0,266.0 C 806.7,265.8 807.0,265.2 806.0,265.0 C 805.0,264.8 803.0,263.8 801.0,265.0 C 799.0,266.2 795.2,270.7 794.0,272.0 C 792.8,273.3 794.2,272.7 794.0,273.0 C 793.8,273.3 793.2,273.5 793.0,274.0 Z"/>
  <path d="M 604.0,192.0 C 604.3,187.3 604.0,189.7 601.0,193.0 C 598.0,196.3 592.2,201.7 586.0,212.0 C 579.8,222.3 570.7,238.8 564.0,255.0 C 557.3,271.2 549.5,297.3 546.0,309.0 C 542.5,320.7 543.3,319.5 543.0,325.0 C 542.7,330.5 541.7,342.3 544.0,342.0 C 546.3,341.7 551.5,333.2 557.0,323.0 C 562.5,312.8 570.0,298.0 577.0,281.0 C 584.0,264.0 594.5,235.8 599.0,221.0 C 603.5,206.2 603.7,196.7 604.0,192.0 Z"/>
  <path d="M 168.0,177.0 C 165.2,183.7 164.2,210.5 159.0,217.0 C 153.8,223.5 142.8,215.0 137.0,216.0 C 131.2,217.0 125.8,219.7 124.0,223.0 C 122.2,226.3 124.8,232.7 126.0,236.0 C 127.2,239.3 129.0,241.2 131.0,243.0 C 133.0,244.8 126.3,242.0 138.0,247.0 C 149.7,252.0 189.5,269.5 201.0,273.0 C 212.5,276.5 206.0,269.5 207.0,268.0 C 208.0,266.5 211.8,278.8 207.0,264.0 C 202.2,249.2 183.2,193.5 178.0,179.0 C 172.8,164.5 177.7,177.3 176.0,177.0 C 174.3,176.7 170.8,170.3 168.0,177.0 Z"/>
  <path d="M 361.0,163.0 C 375.8,192.3 445.7,319.8 462.0,347.0 C 478.3,374.2 461.0,333.8 459.0,326.0 C 457.0,318.2 457.0,315.7 450.0,300.0 C 443.0,284.3 427.8,251.3 417.0,232.0 C 406.2,212.7 392.3,194.2 385.0,184.0 C 377.7,173.8 377.0,174.5 373.0,171.0 C 369.0,167.5 346.2,133.7 361.0,163.0 Z"/>
  <path d="M 619.0,88.0 C 615.2,87.2 612.0,93.7 610.0,96.0 C 608.0,98.3 607.3,88.8 607.0,102.0 C 606.7,115.2 606.3,162.0 608.0,175.0 C 609.7,188.0 615.2,179.2 617.0,180.0 C 618.8,180.8 609.3,190.5 619.0,180.0 C 628.7,169.5 666.0,127.7 675.0,117.0 C 684.0,106.3 673.3,116.7 673.0,116.0 C 672.7,115.3 673.5,113.5 673.0,113.0 C 672.5,112.5 674.2,111.8 670.0,113.0 C 665.8,114.2 653.3,118.7 648.0,120.0 C 642.7,121.3 640.5,124.2 638.0,121.0 C 635.5,117.8 636.2,106.5 633.0,101.0 C 629.8,95.5 622.8,88.8 619.0,88.0 Z"/>
</g>
</svg>