<svg xmlns="http://www.w3.org/2000/svg" viewBox="0 0 200 200" fill="none" aria-hidden="true">
  <path d="M44,7 C79,-11 132,0 161,31 C190,62 189,115 159,146 C130,176 73,185 39,161 C7,139 -7,93 7,58 C15,37 24,20 44,7 Z" fill="#3B6EA5" opacity=".12"/>
  <defs>
    <radialGradient id="kiFlesh" cx="35%" cy="30%" r="75%">
      <stop offset="0" stop-color="#8FC461"/>
      <stop offset="1" stop-color="#5C9138"/>
    </radialGradient>
  </defs>
  <ellipse cx="100" cy="142" rx="38" ry="9" fill="#26161F" opacity=".08"/>
  <g transform="translate(55,45)">
    <circle cx="45" cy="45" r="44" fill="#8A6540"/>
    <circle cx="45" cy="45" r="38" fill="#F2EEDC"/>
    <circle cx="45" cy="45" r="32" fill="url(#kiFlesh)"/>
    <circle cx="45" cy="45" r="9" fill="#F6F2E0"/>
    <g fill="#241B12">
      <circle cx="45" cy="19" r="2.6"/>
      <circle cx="60" cy="24" r="2.6"/>
      <circle cx="69" cy="38" r="2.6"/>
      <circle cx="69" cy="53" r="2.6"/>
      <circle cx="60" cy="66" r="2.6"/>
      <circle cx="45" cy="71" r="2.6"/>
      <circle cx="30" cy="66" r="2.6"/>
      <circle cx="21" cy="53" r="2.6"/>
      <circle cx="21" cy="38" r="2.6"/>
      <circle cx="30" cy="24" r="2.6"/>
    </g>
    <path d="M22 20c-3 5-4 12-2 18" stroke="#C9E3A8" stroke-width="2.4" stroke-linecap="round" opacity=".6"/>
  </g>
</svg>
